<?xml version="1.0" encoding="utf-8"?>
<!-- Generator: Adobe Illustrator 24.3.0, SVG Export Plug-In . SVG Version: 6.00 Build 0)  -->
<svg version="1.1" id="Capa_1" xmlns="http://www.w3.org/2000/svg" xmlns:xlink="http://www.w3.org/1999/xlink" x="0px" y="0px"
	 viewBox="0 0 293.4 294.4" style="enable-background:new 0 0 293.4 294.4;" xml:space="preserve">
<style type="text/css">
	.st0{fill:#3E8912;}
	.st1{fill:#636363;}
	.st2{fill:#575757;}
	.st3{fill:#4F4F4F;}
	.st4{fill:#454545;}
	.st5{fill:#444444;}
	.st6{fill:#F3D394;}
	.st7{fill:#703111;}
	.st8{fill:#494949;}
	.st9{fill:#6F3111;}
	.st10{fill:#DABE83;}
	.st11{fill:#5A2609;}
	.st12{fill:#F4E1B2;}
	.st13{fill:#5E1F04;}
	.st14{fill:#342B27;}
	.st15{fill:#2C2626;}
	.st16{fill:#292929;}
	.st17{fill:#F8E1AE;}
	.st18{fill:#592308;}
	.st19{fill:#572109;}
	.st20{fill:#3B382C;}
	.st21{fill:#3A382B;}
	.st22{fill:#5D290E;}
	.st23{fill:#5D290D;}
	.st24{fill:#561701;}
	.st25{fill:#DFD1A4;}
</style>
<g>
	<circle class="st0" cx="146.7" cy="146.7" r="146.7"/>
	<path class="st1" d="M199.3,216.4c17.3,2.1,33.1,7.5,45.5,20.5c3.2,3.3,3.8,8,6.2,11.8c-2.9,5.8-8.3,9.2-13,13.2
		c-6.8,5.7-14,11-22.1,14.7c-3.1,0.4-5.8,1.6-7.9,4c-8.6,4.7-17.8,7.6-27.3,9.7c-3.3-0.7-6.4,0.8-9.5,1.2
		c-15.7,2.6-31.4,2.5-47.2,0.4c-3.8-0.2-7.2-2.4-11.1-1.6c-9.5-2.1-18.7-5.1-27.2-9.7c-2.1-2.4-4.8-3.5-7.9-4
		c-13.4-6.9-25.2-15.8-35.1-27.2c4.8-16.7,18.1-23.8,32.9-28.8c6-2,12.1-4.8,18.8-4.1c7.1-1.1,6.9-1,9.4,5.3
		c6.1,15.3,12.4,30.5,18.8,45.7c2.2,5.3,2.7,5.2,6.7,1.3c4.3-4.2,7.9-9,12.2-13.2c4.2-4.1,6.3-4.1,10.6,0c4.4,4.3,8.1,9.2,12.6,13.5
		c3.6,3.5,3.9,3.5,6.2-1.1c3.7-7.6,6.3-15.7,9.7-23.5c3.5-8.2,7.2-16.5,10.1-25C192.3,214.5,195.9,215.7,199.3,216.4z"/>
	<path class="st2" d="M122.8,291.4c11.2,0.9,22.5,1.3,33.8,0.9c5.1-0.2,10.2-0.6,15.2-1.9c0.4,0.4,1.1,0.5,1.3,1.2
		c-12.3,3.2-24.9,3.3-37.5,2.4c-4.6-0.3-9.2-1.2-13.8-1.8C121.7,291.4,121.8,290.8,122.8,291.4z"/>
	<path class="st3" d="M77.8,276.5c3.5-0.7,7,1,7.9,4C83,279.2,80.4,277.9,77.8,276.5z"/>
	<path class="st3" d="M208,280.5c1.5-3.6,4.1-4.9,7.9-4C213.2,277.9,210.6,279.2,208,280.5z"/>
	<path class="st4" d="M122.8,291.4c-0.3,0.3-0.7,0.5-1,0.8c-3-0.7-6-1.3-8.9-2C116.5,288.3,119.6,290.4,122.8,291.4z"/>
	<path class="st5" d="M173.1,291.5c-0.4-0.4-0.9-0.8-1.3-1.2c3,0.7,5.9-2.5,8.9-0.1C178.2,290.8,175.8,291.7,173.1,291.5z"/>
	<path class="st6" d="M114.8,204.3c1.6-7.6-1.4-13.5-6.5-19.1c-6.4-7.1-9.7-16.1-13.1-24.8c-0.7-1.7-1.4-2.8-3.1-3.4
		c-11.4-4.1-16.5-13.2-19-24.2c-1.3-5.5,1.4-8.5,7-8.4c1.8,0,3.6,0,5.5-0.1c3.7,1.4,3.4,5.3,5.1,8c1.2,3.9,1.7,7.9,3.5,12.6
		c1-5.1,1-9.4,2.8-13.3c0.6-1.2,1.3-2.5,2-3.7c0.8-1.4,1.8-2.7,2.3-4.3c0.5-5.8,0.5-11.7,3.1-17.1c0.9-3,4.3-2.7,6.1-4.5
		c3.4-2.9,6.1,1.5,9.2,0.9c4.8,1.8,9,4.8,13.6,6.9c5.5,2.5,11.1,4,17.2,3.1c5.9,0.7,10-3,14.3-5.9c4.1-2.9,8.6-5,13-7.2
		c1.8-0.9,3.9-1.7,4.7,1.3c1.2,3.2,6,1.9,7,5.4c2.2,5.5,3.6,11.1,2,17.1c-0.1,0.5,0.5,0.7,0.9,1c2,2,3.1,4.5,4.3,7
		c1.5,4,2.2,8.2,2.9,13c2.2-4,1.7-8,3.4-11.4c1.6-3.1,1.6-7.1,4.9-9.2c1.1-0.4,2.1-0.2,3,0.5c10.2,0,11.5,2.3,8.5,12.3
		c-2.9,10-8.6,17-18.4,20.5c-2.8,1-3,3.6-3.6,5.5c-3.8,11.7-10.4,21.6-18.6,30.7c-11.5,18.2-36.4,25.4-52.5,11.1
		c3.7,2.6,6.9,6.2,10.8,9.2c10.7,8.2,22.2,9.8,34.7,4.8c0.9-0.4,1.8-0.8,2.9-0.4c1.6,1.6,0.4,2.9-0.6,4.2c-1.3,1.6-2.9,3-4.2,4.6
		c-7.2,8.4-13.9,17.2-21.8,25c-0.7,0.2-1.4,0.2-2.1,0c-5.9-5.1-10.3-11.6-15.5-17.3c-2.2-2.5-4.5-4.9-6.3-7.6
		c-3.9-4.4-8.1-8.4-11.1-13.4C112.2,210.2,112.5,207,114.8,204.3z"/>
	<path class="st7" d="M208,124.5c-1.4,3-2.8,6-4.2,9.1c-2.2,1.4-1.1,3.9-2,5.8c-0.5,1-0.5,2.5-2,2.5c-1.6,0-1.3-1.5-1.6-2.5
		c-0.9-2.9-0.9-6.2-2.8-8.8c-2.7-4-3.4-8.4-3-13.2c0.4-5.7-0.5-11-6.5-13.8c-0.8-0.4-1.5-1.1-1-2c0.9-1.7,2.4-2.7,4.5-2.6
		c0.2,0,0.4,0.1,0.5,0.1c0.3-0.4-0.3-0.4-0.3-0.6c0.1-2.1,2.4-1.3,3.1-2.4c-5.3,0.9-10.8,0.7-15.7,3.2c-0.4,0.2-1.5-0.1-1,1
		c-7.4,4.4-13.9,10.2-22.2,13.1c-12.4,1.6-22.9-2.9-32.8-9.6c-1.6-1.1-3.4-1.2-5.2-1.4c-7.7-3.6-14.7-8.1-21.8-12.8
		c-1.6-1.1-3.4-2-4.2-4c-3.3-10.1,1.5-18.1,6.9-25.9c0.9-1.4,1.9-2.7,2.9-4c3.2-4.9,7-9.3,12.3-12.1c2.4-1.6,4.8-3.3,8.3-5.6
		c-2.1,4.7-3.7,8.2-5.3,11.7c0.4,1.3-0.2,2.5-0.2,3.8c2.2-0.6,3.9-2.2,6.1-2.9c10.8-6.9,22.7-10.8,35.3-12.8
		c5.8-1.1,11.6-1,17.4-0.1c0.9,0.4,1.8,0.7,3.1,1.2c-3.5,2.2-7.5,3.3-10,6.6c0.3,2-4,2.2-1.8,4.9l0,0.4c6.4-0.3,12.7-1.1,19.1-0.7
		c8.5,0.5,15.7,4.1,23.2,7.6c-1.2,2.1-2.7,1.2-3.9,1.5c-0.1,0-0.3,0.1-0.3,0.2c0,0.2,0.1,0.3,0.1,0.5c-1.9,0.5-3.8,1.1-5.7,1.6
		c-1.7,1.9,1.4,1.2,1.2,2.3c11.4,3.7,20,10.6,25.1,21.6c0.3,0.6,0.4,1.2,0.8,2.1c-4.1-0.8-7.6-2.9-11.6-2.8
		c-3.4-0.1-4.7,0.9-3.2,4.6c1.5,3.8,3,7.8,2.7,12c-0.6,6.4,0.6,12.9-1.9,19.1C210,121.9,209.6,123.5,208,124.5z"/>
	<path class="st8" d="M114,214.2c4,3.7,7.4,8,10.7,12.3c0.1,3.3,3.1,4.5,4.9,6.5c5.4,6.1,9.9,13.1,16.3,18.3c0.6,0,1.3,0,1.9,0
		c3.5-1.6,5.1-5,7.3-7.8c4.5-5.8,10.5-10.3,13.9-17c2-2.6,4.1-5.2,6.1-7.8c0-0.2,0-0.4,0-0.7c0.8-2,2.3-3.2,4.1-4.1
		c1.5-1.3,1.8-3.5,3.1-4.9c1.6-1.7,3.4-2.5,5.7-1.7c3.6,3.3,5.5,8.7,11.4,9.2c-4.8-0.8-6.8,1.4-8.5,5.9
		c-6.1,15.9-12.7,31.7-19.3,47.4c-2.3,5.4-2.6,5.4-6.7,1.2c-4.8-5-9.6-10.1-14.3-15.2c-2.6-2.9-4.9-2.9-7.5,0
		c-4.8,5.3-10,10.2-14.5,15.7c-3.3,3.9-4.8,2.3-6.2-1.1c-3.6-8.7-7.2-17.5-10.8-26.2c-3.4-8.3-6.7-16.6-10-25
		c-1.5-3.8-4.7-2.2-7.2-2.6c4.2-0.9,7-3.6,9.5-6.9C109.4,205.7,110.8,206.3,114,214.2z"/>
	<path class="st9" d="M89.6,132.9c-1.4-2.8-2.7-5.7-4-8.5c-7.4-12.8-4.1-24.6,3.1-36.1c6.7,2.8,11.8,7.8,17.4,12.1
		c1.6,1.2,1.7,2.7-0.2,4c-3.7,2.7-4.7,6.6-4.8,10.9c-0.1,4.4,0.7,8.9-1.4,13.1c-0.5,1.1-1,2.3-1.6,3.4c-2.9,1.8-1.6,5.2-2.7,7.7
		c-0.4,0.8,0,2.1-1.3,2.3c-1.6,0.3-1.7-1.2-2.1-2.2C91,137.4,91.4,134.7,89.6,132.9z"/>
	<path class="st10" d="M175,218.6c-5,1.7-9.7,3.7-15.2,4c-12.5,0.5-22-5.1-30.1-13.7c-2.4-2.5-6.2-4-7.3-8.7c4.2,3.2,7.4,6.8,12,8.2
		c10.3,3.1,20.3,3.7,29.9-2.8c5.3-3.6,9.5-8.2,14.4-12.2c0,3.6,0.1,7.2,0.1,10.9c0,0.2-0.1,0.5-0.1,0.7c0.8,5.1,0.1,9.8-3.9,13.5
		L175,218.6z"/>
	<path class="st11" d="M99.7,128.4c0.1-5.3,0-10.6,0.2-15.8c0.2-4.2,2-6.6,6.9-10.2c-6.1-4.8-12.1-9.5-18.1-14.2
		c0.3-0.4,0.6-0.7,0.8-1.1c5.3,1.3,9,5.2,13.2,8.2c2.9,2,6.4,3.6,8,7.2c-0.7,3.1-4.8,1.3-5.8,4c-3.1,5.6-3.5,11.7-2.9,17.9
		C102.3,126.3,100.6,127.1,99.7,128.4z"/>
	<path class="st12" d="M110.7,102.5c-7.1-5.1-14.1-10.3-21.2-15.4c0-0.6-0.7-1.4,0.3-1.8c8.7,5.3,17.4,10.7,26.1,16
		c1.6-0.1,2.5,0.8,3,2.2c-1.5,1.6-2.8,0.1-3.8-0.6C113.6,101.8,112.3,101.5,110.7,102.5z"/>
	<path class="st13" d="M203,59.6c-0.8-0.1-1.5-0.3-2.3-0.4c0-0.2,0-0.4,0-0.6c1.7-0.1,3.4-0.2,5.6-0.4c-11.8-6.8-23.9-9.5-36.9-7.1
		c-1.6,0.3-3.2,0.9-4.7-0.5c16.5-3.9,31.8-0.9,46.1,9C208.3,59.6,205.7,59.6,203,59.6z"/>
	<path class="st14" d="M114,214.2c-1.8,0.9-1.1-0.9-1.4-1.5c-1.9-2.7-3-7.5-7.5-2.7c-0.1,0.1-0.8-0.4-1.2-0.6
		c2.2-4.8,6.4-5.4,10.9-5.2C114.5,207.6,114.2,210.9,114,214.2z"/>
	<path class="st15" d="M187.9,207.2c-4.3,0.6-6.2,3.6-7.5,7.3c0,0-0.3,0-0.5,0c-0.1-0.1-0.2-0.2-0.4-0.3c-0.9-3.2-1.9-6.4-0.9-9.7
		l0.1-0.2C182.2,204.2,185.6,204.1,187.9,207.2z"/>
	<path class="st16" d="M146.9,286.1c-2.5-0.7-4.9-1.8-4.9-4.7c-0.1-2.9,1.7-4.7,4.5-4.9c3.1-0.2,5.1,1.6,5.2,4.7
		C151.8,284.2,149.4,285.3,146.9,286.1z"/>
	<path class="st17" d="M194.8,96.5c-1.3,1.8-3.8,0.4-5.1,1.9c-2.6,0.9-4.5,3.2-7.5,3.3c-1-1.8-2.1-1.8-4.1-1
		c-7.7,3.2-13.8,8.9-21.3,12.3c-1.9,0.9-3.7,2.4-5.9,0.8c0.7-1.1,1.7-1.6,3-1.3c8.2-2.9,14.5-8.9,22.1-12.9
		C181.8,96,188.1,95.3,194.8,96.5z"/>
	<path class="st18" d="M182.2,101.6c2.2-1.7,4.5-3.3,7.5-3.3c1,0.1,2,0.2,2.9,0.3c-2.5,0.8-5.2,0.9-7.1,3.4c6.8,2.7,8.9,8.1,8.3,15
		c-0.4,4.6-0.3,9.2,2.1,13.4c0.4,0.6,0.3,1.1-0.3,1.5c-1.1-2.6-3.5-4.5-4-7.4c-0.7-6,0.7-12.4-2.8-18c-1.4-1.9-3.6-2.2-5.7-2.6
		C181.5,103.6,181.2,102.9,182.2,101.6z"/>
	<path class="st19" d="M153.8,112.4c-1,0.4-2,0.9-3,1.3c-7.4,1.8-14-0.6-20.4-3.8c-4-2-7.8-4.2-11.6-6.4c-1-0.8-2-1.5-3-2.2
		c1.4-1.5,2.6-0.2,3.5,0.4C129.7,109,140.8,113.9,153.8,112.4z"/>
	<path class="st20" d="M145.9,251.3c-2.8,0.5-3.8-2-5-3.5c-5.1-6.2-10-12.5-15.9-17.9c-1.1-1-1.6-2.1-0.3-3.3
		C131.8,234.8,138.8,243,145.9,251.3z"/>
	<path class="st21" d="M168.9,226.5c1.1,0.9,0.6,1.8,0,2.6c-6.4,7.3-12.8,14.6-19.2,21.9c-0.5,0.5-1.1,1.4-1.9,0.3
		C154.8,243,161.9,234.7,168.9,226.5z"/>
	<path class="st22" d="M195.6,131.9c0.1-0.5,0.2-1,0.3-1.5c2.8,2.9,2,7.1,3.7,10.7c2.4-2.1,1.8-5,2.6-7.3c0.1-0.4,0.5-3.3,1.6-0.3
		c-0.7,3.5-1.5,7-2.2,10.6c-0.3,1.5-1,2.7-2.5,2.6c-1.6-0.1-1.2-1.8-1.2-2.8C197.9,139.8,196.4,135.9,195.6,131.9z"/>
	<path class="st23" d="M89.6,132.9c2.3-0.6,1.7,1.6,2,2.4c0.7,1.9,0.6,4,2.6,6.2c0.7-3,1.1-5.4,1.8-7.8c0.2-0.8-0.2-3.2,2.1-1.8
		c-1.2,3.8-2.1,7.7-2.4,11.6c-0.1,1.1,0.7,3.1-1.3,3.2c-1.8,0.1-2.2-1.6-2.5-3.2C91.2,139.9,90.4,136.4,89.6,132.9z"/>
	<path class="st24" d="M211.6,101.5c0.1,6.4,2.4,13-1.9,18.9c0.4-6.4,2.2-12.7,0.6-19.1C210.7,101.4,211.1,101.4,211.6,101.5z"/>
	<path class="st25" d="M178.8,204.5c0.6,3.2,1.1,6.4,0.9,9.7c-1.6,1.4-3.1,2.9-4.7,4.3c2-4.2,4.1-8.3,2.3-13.2
		C177,204.8,178.1,204.6,178.8,204.5z"/>
</g>
</svg>
